<svg width="1107" height="1121" viewBox="0 0 1107 1121" fill="none" xmlns="http://www.w3.org/2000/svg"><script xmlns=""/>
<path d="M393.734 124.039L590.602 323.398L196.867 722.116L-2.53358e-05 522.757L393.734 124.039Z" fill="black" fill-opacity="0.05"/>
<path d="M787.469 522.757L984.336 722.116L590.602 1120.83L393.734 921.476L787.469 522.757Z" fill="black" fill-opacity="0.05"/>
<path d="M984.336 722.116C1023.12 682.846 1053.88 636.225 1074.86 584.916C1095.85 533.607 1106.65 478.614 1106.65 423.078C1106.65 367.541 1095.85 312.548 1074.86 261.239C1053.88 209.93 1023.12 163.309 984.336 124.039C945.556 84.7684 899.519 53.6175 848.851 32.3646C798.183 11.1116 743.878 0.17285 689.035 0.172856C634.193 0.172863 579.887 11.1116 529.219 32.3646C478.552 53.6175 432.514 84.7684 393.734 124.039L590.689 323.486C603.604 310.408 618.936 300.033 635.81 292.955C652.685 285.877 670.771 282.234 689.035 282.234C707.3 282.234 725.385 285.877 742.26 292.955C759.134 300.033 774.466 310.408 787.381 323.486C800.296 336.565 810.541 352.091 817.531 369.179C824.52 386.267 828.118 404.582 828.118 423.078C828.118 441.573 824.52 459.888 817.531 476.976C810.541 494.064 800.296 509.59 787.381 522.669L984.336 722.116Z" fill="black" fill-opacity="0.05"/>
<script xmlns=""/></svg>